# Blender v2.81 (sub 16) OBJ File: 'tools.blend'
# www.blender.org
mtllib hand.mtl
o Cube.001
v -0.130307 -0.030815 0.130307
v -0.130307 0.030815 0.130307
v -0.122917 -0.039802 -0.145629
v -0.125019 0.014380 -0.135459
v 0.130307 -0.030815 0.130307
v 0.130307 0.030815 0.130307
v 0.130307 -0.030693 -0.130307
v 0.130343 0.030815 -0.130387
v -0.130252 -0.030113 -0.065250
v -0.130307 -0.030815 0.000000
v -0.130307 -0.030815 0.065154
v -0.130307 0.030815 0.065154
v -0.130307 0.030815 0.000000
v -0.129937 0.029120 -0.065435
v 0.130307 -0.030815 0.065154
v 0.130307 -0.030815 0.000000
v 0.130307 -0.030815 -0.065154
v 0.130307 0.030815 -0.065154
v 0.130307 0.030815 0.000000
v 0.130307 0.030815 0.065154
v 0.130307 -0.024315 0.072025
v 0.130307 0.024315 0.072025
v 0.130307 0.024315 0.123435
v 0.130307 -0.024315 0.123435
v 0.130307 -0.024306 -0.123435
v 0.130308 0.024319 -0.123438
v 0.130307 0.024315 -0.072025
v 0.130307 -0.024315 -0.072025
v 0.130307 -0.024315 -0.058282
v 0.130307 0.024315 -0.058282
v 0.130307 0.024315 -0.006872
v 0.130307 -0.024315 -0.006872
v 0.130307 -0.024315 0.006872
v 0.130307 0.024315 0.006872
v 0.130307 0.024315 0.058282
v 0.130307 -0.024315 0.058282
v 0.350355 0.174167 0.072025
v 0.369594 0.129506 0.072025
v 0.350355 0.174167 0.123435
v 0.369594 0.129506 0.123435
v 0.350355 0.174167 -0.123435
v 0.369594 0.129506 -0.123435
v 0.350355 0.174167 -0.072025
v 0.369594 0.129506 -0.072025
v 0.350355 0.174167 -0.058282
v 0.369594 0.129506 -0.058282
v 0.350355 0.174167 -0.006872
v 0.369594 0.129506 -0.006872
v 0.350355 0.174167 0.006872
v 0.369594 0.129506 0.006872
v 0.350355 0.174167 0.058282
v 0.369594 0.129506 0.058282
v 0.009044 -0.032348 -0.147682
v 0.006830 0.023542 -0.137773
v 0.001880 -0.030815 0.130307
v 0.001880 0.030815 0.130307
v 0.002250 0.029584 -0.065608
v 0.001880 0.030815 0.000000
v 0.001880 0.030815 0.065154
v 0.001935 -0.030069 -0.065267
v 0.001880 -0.030815 0.000000
v 0.001880 -0.030815 0.065154
v -0.087389 0.006591 -0.139050
v -0.085517 -0.031672 -0.147529
v -0.026520 -0.027629 -0.148557
v -0.028431 0.011165 -0.140141
v -0.096627 0.069000 -0.248085
v -0.089376 0.038834 -0.278413
v -0.031799 0.052360 -0.278101
v -0.039050 0.082526 -0.247774
vt 0.375000 0.187500
vt 0.625000 0.187500
vt 0.625000 0.250000
vt 0.375000 0.250000
vt 0.375000 0.376804
vt 0.625000 0.376804
vt 0.625000 0.500000
vt 0.375000 0.500000
vt 0.375000 0.873196
vt 0.625000 0.873196
vt 0.625000 1.000000
vt 0.375000 1.000000
vt 0.251804 0.687500
vt 0.375000 0.687500
vt 0.375000 0.750000
vt 0.251804 0.750000
vt 0.748196 0.687500
vt 0.875000 0.687500
vt 0.875000 0.750000
vt 0.748196 0.750000
vt 0.748196 0.500000
vt 0.875000 0.500000
vt 0.875000 0.562500
vt 0.748196 0.562500
vt 0.875000 0.625000
vt 0.748196 0.625000
vt 0.251804 0.500000
vt 0.375000 0.562500
vt 0.251804 0.562500
vt 0.375000 0.625000
vt 0.251804 0.625000
vt 0.375000 0.000000
vt 0.625000 0.000000
vt 0.625000 0.062500
vt 0.375000 0.062500
vt 0.625000 0.125000
vt 0.375000 0.125000
vt 0.375000 0.687500
vt 0.375000 0.625000
vt 0.375000 0.625000
vt 0.375000 0.687500
vt 0.625000 0.687500
vt 0.625000 0.687500
vt 0.375000 0.687500
vt 0.625000 0.750000
vt 0.625000 0.750000
vt 0.375000 0.750000
vt 0.375000 0.625000
vt 0.375000 0.562500
vt 0.375000 0.562500
vt 0.375000 0.625000
vt 0.625000 0.500000
vt 0.375000 0.500000
vt 0.625000 0.562500
vt 0.625000 0.562500
vt 0.375000 0.562500
vt 0.625000 0.687500
vt 0.625000 0.687500
vt 0.625000 0.562500
vt 0.625000 0.625000
vt 0.625000 0.625000
vt 0.375000 0.500000
vt 0.375000 0.562500
vt 0.625000 0.625000
vt 0.375000 0.687500
vt 0.625000 0.687500
vt 0.625000 0.750000
vt 0.375000 0.750000
vt 0.625000 0.500000
vt 0.625000 0.562500
vt 0.625000 0.562500
vt 0.625000 0.625000
vt 0.625000 0.625000
vt 0.125000 0.625000
vt 0.125000 0.687500
vt 0.125000 0.562500
vt 0.125000 0.500000
vt 0.125000 0.750000
vt 0.625000 0.250000
vt 0.375000 0.250000
vt 0.875000 0.500000
vt 0.748196 0.500000
vt 0.748196 0.500000
vt 0.875000 0.500000
vt 0.125000 0.500000
vt 0.251804 0.500000
vt 0.375000 0.376804
vt 0.625000 0.376804
vt 0.375000 0.250000
vt 0.625000 0.250000
vt 0.625000 0.376804
vt 0.375000 0.376804
vt 0.125000 0.500000
vt 0.251804 0.500000
vn -0.9968 -0.0087 -0.0798
vn 0.0972 0.0848 -0.9916
vn 0.0000 0.0000 1.0000
vn 0.0000 -1.0000 0.0000
vn 0.0000 1.0000 0.0000
vn -0.0374 0.9884 -0.1470
vn -0.0018 0.9997 -0.0223
vn 0.0026 -0.9999 0.0147
vn -0.0029 -1.0000 -0.0057
vn -1.0000 0.0000 0.0000
vn -1.0000 0.0026 -0.0033
vn 0.5407 -0.8412 0.0000
vn 1.0000 0.0000 0.0000
vn 1.0000 -0.0003 0.0025
vn 1.0000 -0.0027 0.0003
vn 0.5407 -0.8412 -0.0001
vn 0.9184 0.3956 0.0000
vn 0.0000 0.0000 -1.0000
vn -0.5629 0.8265 0.0000
vn 0.0002 -0.9999 -0.0111
vn 0.0289 -0.9967 0.0758
vn -0.0048 0.9999 -0.0094
vn -0.0323 0.9985 -0.0450
vn -0.0725 0.1942 -0.9783
vn -0.1267 0.8388 0.5295
vn -0.0031 -0.2107 -0.9775
vn -0.0372 0.2792 -0.9595
vn 0.0243 0.1910 -0.9813
vn -0.1562 0.6814 -0.7151
vn -0.9922 -0.1240 -0.0145
vn 0.9921 0.1245 0.0130
vn 0.1261 -0.8570 -0.4997
usemtl None
s off
f 9/1/1 14/2/1 4/3/1 3/4/1
f 53/5/2 54/6/2 8/7/2 7/8/2
f 55/9/3 56/10/3 2/11/3 1/12/3
f 62/13/4 15/14/4 5/15/4 55/16/4
f 59/17/5 12/18/5 2/19/5 56/20/5
f 54/21/6 4/22/6 14/23/6 57/24/6
f 57/24/7 14/23/7 13/25/7 58/26/7
f 58/26/5 13/25/5 12/18/5 59/17/5
f 53/27/8 7/8/8 17/28/8 60/29/8
f 60/29/9 17/28/9 16/30/9 61/31/9
f 61/31/4 16/30/4 15/14/4 62/13/4
f 1/32/10 2/33/10 12/34/10 11/35/10
f 11/35/10 12/34/10 13/36/10 10/37/10
f 10/37/11 13/36/11 14/2/11 9/1/11
f 36/38/12 33/39/12 50/40/12 52/41/12
f 20/42/13 22/43/13 21/44/13 15/14/13
f 6/45/13 23/46/13 22/43/13 20/42/13
f 5/15/13 24/47/13 23/46/13 6/45/13
f 15/14/13 21/44/13 24/47/13 5/15/13
f 32/48/12 29/49/12 46/50/12 48/51/12
f 8/7/14 26/52/14 25/53/14 7/8/14
f 18/54/15 27/55/15 26/52/15 8/7/15
f 17/28/13 28/56/13 27/55/13 18/54/13
f 7/8/13 25/53/13 28/56/13 17/28/13
f 35/57/3 36/38/3 52/41/3 51/58/3
f 18/54/13 30/59/13 29/49/13 17/28/13
f 19/60/13 31/61/13 30/59/13 18/54/13
f 16/30/13 32/48/13 31/61/13 19/60/13
f 17/28/13 29/49/13 32/48/13 16/30/13
f 28/56/16 25/53/16 42/62/16 44/63/16
f 19/60/13 34/64/13 33/39/13 16/30/13
f 20/42/13 35/57/13 34/64/13 19/60/13
f 15/14/13 36/38/13 35/57/13 20/42/13
f 16/30/13 33/39/13 36/38/13 15/14/13
f 38/65/17 37/66/17 39/67/17 40/68/17
f 42/62/17 41/69/17 43/70/17 44/63/17
f 46/50/17 45/71/17 47/72/17 48/51/17
f 50/40/17 49/73/17 51/58/17 52/41/17
f 21/44/18 22/43/18 37/66/18 38/65/18
f 25/53/18 26/52/18 41/69/18 42/62/18
f 22/43/19 23/46/19 39/67/19 37/66/19
f 29/49/18 30/59/18 45/71/18 46/50/18
f 26/52/19 27/55/19 43/70/19 41/69/19
f 33/39/18 34/64/18 49/73/18 50/40/18
f 23/46/3 24/47/3 40/68/3 39/67/3
f 30/59/19 31/61/19 47/72/19 45/71/19
f 27/55/3 28/56/3 44/63/3 43/70/3
f 34/64/19 35/57/19 51/58/19 49/73/19
f 24/47/12 21/44/12 38/65/12 40/68/12
f 31/61/3 32/48/3 48/51/3 47/72/3
f 10/74/4 61/31/4 62/13/4 11/75/4
f 9/76/20 60/29/20 61/31/20 10/74/20
f 3/77/21 53/27/21 60/29/21 9/76/21
f 19/60/5 58/26/5 59/17/5 20/42/5
f 18/54/22 57/24/22 58/26/22 19/60/22
f 8/7/23 54/21/23 57/24/23 18/54/23
f 20/42/5 59/17/5 56/20/5 6/45/5
f 11/75/4 62/13/4 55/16/4 1/78/4
f 5/15/3 6/45/3 56/10/3 55/9/3
f 3/4/24 4/3/24 63/79/24 64/80/24
f 63/81/25 66/82/25 70/83/25 67/84/25
f 53/27/26 3/77/26 64/85/26 65/86/26
f 4/22/27 54/21/27 66/82/27 63/81/27
f 54/6/28 53/5/28 65/87/28 66/88/28
f 68/89/29 67/90/29 70/91/29 69/92/29
f 64/80/30 63/79/30 67/90/30 68/89/30
f 66/88/31 65/87/31 69/92/31 70/91/31
f 65/86/32 64/85/32 68/93/32 69/94/32
