# Blender v2.81 (sub 16) OBJ File: 'eraser.blend'
# www.blender.org
mtllib pencil.mtl
o Circle_Circle.001
v -0.000000 -0.000000 -0.054396
v 0.000000 0.038464 -0.038464
v 0.000000 0.054396 0.000000
v 0.000000 0.038464 0.038464
v -0.000000 -0.000000 0.054396
v -0.000000 -0.038464 0.038464
v 0.000000 -0.054396 -0.000000
v -0.000000 -0.038464 -0.038464
v 0.133401 -0.000000 -0.054396
v 0.133401 0.038464 -0.038464
v 0.133401 0.054396 0.000000
v 0.133401 0.038464 0.038464
v 0.133401 -0.000000 0.054396
v 0.133401 -0.038464 0.038464
v 0.133401 -0.054396 -0.000000
v 0.133401 -0.038464 -0.038464
v 0.190670 0.000000 -0.002969
v 0.190670 0.002099 -0.002099
v 0.190670 0.002969 0.000000
v 0.190670 0.002099 0.002099
v 0.190670 0.000000 0.002969
v 0.190670 -0.002099 0.002099
v 0.190670 -0.002969 -0.000000
v 0.190670 -0.002099 -0.002099
v 0.000000 0.000000 -0.055084
v 0.000000 0.010746 -0.054025
v 0.000000 0.021080 -0.050891
v 0.000000 0.030603 -0.045801
v 0.000000 0.038950 -0.038950
v 0.000000 0.045801 -0.030603
v 0.000000 0.050891 -0.021080
v 0.000000 0.054025 -0.010746
v 0.000000 0.055084 -0.000000
v 0.000000 0.054025 0.010746
v 0.000000 0.050891 0.021080
v 0.000000 0.045801 0.030603
v 0.000000 0.038950 0.038950
v 0.000000 0.030603 0.045801
v 0.000000 0.021080 0.050891
v 0.000000 0.010746 0.054025
v -0.000000 -0.000000 0.055084
v -0.000000 -0.010746 0.054025
v -0.000000 -0.021080 0.050891
v 0.000000 -0.030603 0.045800
v -0.000000 -0.038950 0.038950
v -0.000000 -0.045801 0.030603
v -0.000000 -0.050891 0.021080
v -0.000000 -0.054025 0.010746
v 0.000000 -0.055084 -0.000000
v -0.000000 -0.054025 -0.010746
v -0.000000 -0.050891 -0.021080
v -0.000000 -0.045800 -0.030603
v -0.000000 -0.038950 -0.038950
v 0.000000 -0.030603 -0.045801
v -0.000000 -0.021080 -0.050891
v -0.000000 -0.010746 -0.054025
v -0.069494 0.000000 -0.055084
v -0.069494 0.010746 -0.054025
v -0.069494 0.021080 -0.050891
v -0.069494 0.030603 -0.045801
v -0.069494 0.038950 -0.038950
v -0.069494 0.045801 -0.030603
v -0.069494 0.050891 -0.021080
v -0.069494 0.054025 -0.010746
v -0.069494 0.055084 -0.000000
v -0.069494 0.054025 0.010746
v -0.069494 0.050891 0.021080
v -0.069494 0.045801 0.030603
v -0.069494 0.038950 0.038950
v -0.069494 0.030603 0.045801
v -0.069494 0.021080 0.050891
v -0.069494 0.010746 0.054025
v -0.069494 -0.000000 0.055084
v -0.069494 -0.010746 0.054025
v -0.069494 -0.021080 0.050891
v -0.069494 -0.030603 0.045800
v -0.069494 -0.038950 0.038950
v -0.069494 -0.045801 0.030603
v -0.069494 -0.050891 0.021080
v -0.069494 -0.054025 0.010746
v -0.069494 -0.055084 -0.000000
v -0.069494 -0.054025 -0.010746
v -0.069494 -0.050891 -0.021080
v -0.069494 -0.045800 -0.030603
v -0.069494 -0.038950 -0.038950
v -0.069494 -0.030603 -0.045801
v -0.069494 -0.021080 -0.050891
v -0.069494 -0.010746 -0.054025
vt 0.000000 0.000000
vt 0.000000 0.000000
vt 0.000000 0.000000
vt 0.000000 0.000000
vt 0.000000 0.000000
vt 0.000000 0.000000
vt 0.000000 0.000000
vt 0.000000 0.000000
vt 0.000000 0.000000
vt 0.000000 0.000000
vt 0.000000 0.000000
vt 0.000000 0.000000
vt 0.000000 0.000000
vt 0.000000 0.000000
vt 0.000000 0.000000
vt 0.000000 0.000000
vt 0.000000 0.000000
vt 0.000000 0.000000
vt 0.000000 0.000000
vt 0.000000 0.000000
vt 0.000000 0.000000
vt 0.000000 0.000000
vt 0.000000 0.000000
vt 0.000000 0.000000
vt 0.000000 0.000000
vt 0.000000 0.000000
vt 0.000000 0.000000
vt 0.000000 0.000000
vt 0.000000 0.000000
vt 0.000000 0.000000
vt 0.000000 0.000000
vt 0.000000 0.000000
vt 0.000000 0.000000
vt 0.000000 0.000000
vt 0.000000 0.000000
vt 0.000000 0.000000
vt 0.000000 0.000000
vt 0.000000 0.000000
vt 0.000000 0.000000
vt 0.000000 0.000000
vt 0.000000 0.000000
vt 0.000000 0.000000
vt 0.000000 0.000000
vt 0.000000 0.000000
vt 0.000000 0.000000
vt 0.000000 0.000000
vt 0.000000 0.000000
vt 0.000000 0.000000
vt 0.000000 0.000000
vt 0.000000 0.000000
vt 0.000000 0.000000
vt 0.000000 0.000000
vt 0.000000 0.000000
vt 0.000000 0.000000
vt 0.000000 0.000000
vt 0.000000 0.000000
vt 0.000000 0.000000
vt 0.000000 0.000000
vt 0.000000 0.000000
vt 0.000000 0.000000
vt 0.000000 0.000000
vt 0.000000 0.000000
vt 0.000000 0.000000
vt 0.000000 0.000000
vt 0.000000 0.000000
vt 0.000000 0.000000
vt 0.000000 0.000000
vt 0.000000 0.000000
vt 0.000000 0.000000
vt 0.000000 0.000000
vt 0.000000 0.000000
vt 0.000000 0.000000
vt 0.000000 0.000000
vt 0.000000 0.000000
vt 0.000000 0.000000
vt 0.000000 0.000000
vt 0.000000 0.000000
vt 0.000000 0.000000
vt 0.000000 0.000000
vt 0.000000 0.000000
vt 0.000000 0.000000
vt 0.000000 0.000000
vt 0.000000 0.000000
vt 0.000000 0.000000
vt 0.000000 0.000000
vt 0.000000 0.000000
vt 0.000000 0.000000
vt 0.000000 0.000000
vn -1.0000 0.0000 0.0000
vn 0.6385 -0.2945 -0.7110
vn 0.0000 -0.3827 0.9239
vn 0.0000 0.9239 0.3827
vn 0.0000 0.3827 -0.9239
vn -0.0000 -0.3827 -0.9239
vn -0.0000 -0.9239 0.3827
vn 0.0000 0.3827 0.9239
vn 0.0000 0.9239 -0.3827
vn -0.0000 -0.9239 -0.3827
vn 1.0000 -0.0000 0.0000
vn 0.6385 -0.7110 0.2945
vn 0.6385 0.2945 0.7110
vn 0.6385 0.7110 -0.2945
vn 0.6385 -0.7110 -0.2945
vn 0.6385 -0.2945 0.7110
vn 0.6385 0.7110 0.2945
vn 0.6385 0.2945 -0.7110
vn 0.0000 0.9952 0.0980
vn 0.0000 -0.9569 0.2903
vn 0.0000 0.9569 0.2903
vn 0.0000 -0.9952 0.0980
vn 0.0000 0.8819 0.4714
vn 0.0000 -0.9952 -0.0980
vn 0.0000 0.7730 0.6344
vn 0.0000 -0.9569 -0.2903
vn 0.0000 0.6344 0.7730
vn 0.0000 -0.8819 -0.4714
vn 0.0000 0.4714 0.8819
vn 0.0000 0.0980 -0.9952
vn 0.0000 -0.7730 -0.6344
vn 0.0000 0.2903 0.9569
vn 0.0000 0.2903 -0.9569
vn 0.0000 -0.6344 -0.7730
vn 0.0000 0.0980 0.9952
vn 0.0000 0.4714 -0.8819
vn 0.0000 -0.4714 -0.8819
vn 0.0000 -0.0980 0.9952
vn 0.0000 0.6344 -0.7730
vn 0.0000 -0.2903 -0.9569
vn 0.0000 -0.2903 0.9569
vn 0.0000 0.7730 -0.6344
vn 0.0000 -0.0980 -0.9952
vn 0.0000 -0.4714 0.8819
vn 0.0000 0.8819 -0.4714
vn 0.0000 -0.6344 0.7730
vn 0.0000 0.9569 -0.2903
vn 0.0000 -0.7730 0.6344
vn 0.0000 0.9952 -0.0980
vn 0.0000 -0.8819 0.4714
usemtl None
s off
f 2/1/1 1/2/1 8/3/1 7/4/1 6/5/1 5/6/1 4/7/1 3/8/1
f 16/9/2 9/10/2 17/11/2 24/12/2
f 5/6/3 6/5/3 14/13/3 13/14/3
f 3/8/4 4/7/4 12/15/4 11/16/4
f 1/2/5 2/1/5 10/17/5 9/10/5
f 8/3/6 1/2/6 9/10/6 16/9/6
f 6/5/7 7/4/7 15/18/7 14/13/7
f 4/7/8 5/6/8 13/14/8 12/15/8
f 2/1/9 3/8/9 11/16/9 10/17/9
f 7/4/10 8/3/10 16/9/10 15/18/10
f 18/19/11 19/20/11 20/21/11 21/22/11 22/23/11 23/24/11 24/12/11 17/11/11
f 14/13/12 15/18/12 23/24/12 22/23/12
f 12/15/13 13/14/13 21/22/13 20/21/13
f 10/17/14 11/16/14 19/20/14 18/19/14
f 15/18/15 16/9/15 24/12/15 23/24/15
f 13/14/16 14/13/16 22/23/16 21/22/16
f 11/16/17 12/15/17 20/21/17 19/20/17
f 9/10/18 10/17/18 18/19/18 17/11/18
f 34/25/19 33/26/19 65/27/19 66/28/19
f 48/29/20 47/30/20 79/31/20 80/32/20
f 35/33/21 34/25/21 66/28/21 67/34/21
f 49/35/22 48/29/22 80/32/22 81/36/22
f 36/37/23 35/33/23 67/34/23 68/38/23
f 50/39/24 49/35/24 81/36/24 82/40/24
f 37/41/25 36/37/25 68/38/25 69/42/25
f 51/43/26 50/39/26 82/40/26 83/44/26
f 38/45/27 37/41/27 69/42/27 70/46/27
f 52/47/28 51/43/28 83/44/28 84/48/28
f 39/49/29 38/45/29 70/46/29 71/50/29
f 26/51/30 25/52/30 57/53/30 58/54/30
f 53/55/31 52/47/31 84/48/31 85/56/31
f 40/57/32 39/49/32 71/50/32 72/58/32
f 27/59/33 26/51/33 58/54/33 59/60/33
f 54/61/34 53/55/34 85/56/34 86/62/34
f 41/63/35 40/57/35 72/58/35 73/64/35
f 28/65/36 27/59/36 59/60/36 60/66/36
f 55/67/37 54/61/37 86/62/37 87/68/37
f 42/69/38 41/63/38 73/64/38 74/70/38
f 29/71/39 28/65/39 60/66/39 61/72/39
f 56/73/40 55/67/40 87/68/40 88/74/40
f 43/75/41 42/69/41 74/70/41 75/76/41
f 30/77/42 29/71/42 61/72/42 62/78/42
f 25/52/43 56/73/43 88/74/43 57/53/43
f 44/79/44 43/75/44 75/76/44 76/80/44
f 31/81/45 30/77/45 62/78/45 63/82/45
f 45/83/46 44/79/46 76/80/46 77/84/46
f 32/85/47 31/81/47 63/82/47 64/86/47
f 46/87/48 45/83/48 77/84/48 78/88/48
f 33/26/49 32/85/49 64/86/49 65/27/49
f 47/30/50 46/87/50 78/88/50 79/31/50
f 58/54/1 57/53/1 88/74/1 87/68/1 86/62/1 85/56/1 84/48/1 83/44/1 82/40/1 81/36/1 80/32/1 79/31/1 78/88/1 77/84/1 76/80/1 75/76/1 74/70/1 73/64/1 72/58/1 71/50/1 70/46/1 69/42/1 68/38/1 67/34/1 66/28/1 65/27/1 64/86/1 63/82/1 62/78/1 61/72/1 60/66/1 59/60/1
f 26/51/11 27/59/11 28/65/11 29/71/11 30/77/11 31/81/11 32/85/11 33/26/11 34/25/11 35/33/11 36/37/11 37/41/11 38/45/11 39/49/11 40/57/11 41/63/11 42/69/11 43/75/11 44/79/11 45/83/11 46/87/11 47/30/11 48/29/11 49/35/11 50/39/11 51/43/11 52/47/11 53/55/11 54/61/11 55/67/11 56/73/11 25/52/11
