# Blender v2.82 (sub 7) OBJ File: ''
# www.blender.org
mtllib play.mtl
o Cube
v 0.097958 0.000000 -0.026408
v 0.097958 0.000000 0.026408
v -0.074428 0.100000 -0.026408
v -0.074428 -0.100000 -0.026408
v -0.074428 0.100000 0.026408
v -0.074428 -0.100000 0.026408
vt 0.625000 0.500000
vt 0.875000 0.500000
vt 0.875000 0.750000
vt 0.625000 0.750000
vt 0.625000 1.000000
vt 0.375000 1.000000
vt 0.375000 0.000000
vt 0.625000 0.000000
vt 0.625000 0.250000
vt 0.375000 0.250000
vt 0.125000 0.500000
vt 0.375000 0.500000
vt 0.375000 0.750000
vt 0.125000 0.750000
vn 0.5018 0.8650 0.0000
vn 0.0000 0.0000 1.0000
vn -1.0000 0.0000 0.0000
vn 0.5018 -0.8650 0.0000
vn 0.0000 0.0000 -1.0000
usemtl Material
s off
f 1/1/1 3/2/1 5/3/1 2/4/1
f 2/4/2 5/5/2 6/6/2
f 6/7/3 5/8/3 3/9/3 4/10/3
f 4/11/4 1/12/4 2/13/4 6/14/4
f 4/10/5 3/9/5 1/12/5
